# xmcd
#
# Track frame offsets: 
#        150
#        19500
#        36674
#        58821
#        76280
#        90380
#        106430
#        125695
#        143335
#        161004
#        177354
#        193301
#
# Disc length: 2792 seconds
#
# Revision: 0
# Processed by: cddbd v1.5.2PL0 Copyright (c) Steve Scherf et al.
# Submitted via: ExactAudioCopy v0.95b4
#
DISCID=a10ae60c
DTITLE=D'banj - The Entertainer
DYEAR=2008
DGENRE=Hip-hop
TTITLE0=Mo Gbono Feli Feli 
TTITLE1=Kimon
TTITLE2=Celebrate feat Wande Cole
TTITLE3=Olorun maje
TTITLE4=Suddenly
TTITLE5=fall IN Love
TTITLE6=Gbelo Gbelo feat Special Ed
TTITLE7=Igwe (Dbanj)
TTITLE8=If You Dey crase feat K-Switch
TTITLE9=Entertainer
TTITLE10=Instrumental
TTITLE11=Unknown track
EXTD=
EXTT0=
EXTT1=
EXTT2=
EXTT3=
EXTT4=
EXTT5=
EXTT6=
EXTT7=
EXTT8=
EXTT9=
EXTT10=
EXTT11=
PLAYORDER=
